<svg xmlns="http://www.w3.org/2000/svg" width="325" height="68" viewBox="0 0 325 68">
  <metadata><?xpacket begin="﻿" id="W5M0MpCehiHzreSzNTczkc9d"?>
<x:xmpmeta xmlns:x="adobe:ns:meta/" x:xmptk="Adobe XMP Core 5.6-c138 79.159824, 2016/09/14-01:09:01        ">
   <rdf:RDF xmlns:rdf="http://www.w3.org/1999/02/22-rdf-syntax-ns#">
      <rdf:Description rdf:about=""/>
   </rdf:RDF>
</x:xmpmeta>
                                                                                                    
                                                                                                    
                                                                                                    
                                                                                                    
                                                                                                    
                                                                                                    
                                                                                                    
                                                                                                    
                                                                                                    
                                                                                                    
                                                                                                    
                                                                                                    
                                                                                                    
                                                                                                    
                                                                                                    
                                                                                                    
                                                                                                    
                                                                                                    
                                                                                                    
                                                                                                    
                           
<?xpacket end="w"?></metadata>
<defs>
    <style>
      .cls-1 {
        fill: #fff;
        fill-rule: evenodd;
      }
    </style>
  </defs>
  <path id="R_echiol_copy_2_копия" data-name="R echiol®  copy 2 копия" class="cls-1" d="M837,898v2.454l1.863,0.179,1.058,0.281,0.855,0.486,0.353,0.333,0.478,0.894,0.4,1.612,0.151,1.175V936.48l-0.428,2.3-0.352.946-0.277.383-0.856.563-0.957.332-1.838.179a0.569,0.569,0,0,0-.453.256v2.4h18.4a0.533,0.533,0,0,0,.479-0.23v-2.429l-2.14-.179-1.032-.332-0.781-.512-0.327-.383-0.5-1.508-0.251-1.177L850.716,924.5l0.1-.512h4.029v0.1l0.528-.051,1.486,0.511,0.83,1.368,1.385,1.3,2.14,2.609,17.321,27.92,3.474,3.937,1.485,1.227,2.14,1.228,7.4,1.853,2.039-.4h1.083l0.553-.1,0.5-.205,0.755-.613,0.277-.41,0.176-.486,0.051-.664-0.227-1.075-0.478-.894-0.655-.716-0.4-.281-0.6-.179h-0.478l-0.453.179-0.328.332-0.553,1.458-0.277.434-0.328.333-0.478.127-0.6-.025-0.5-.153-1.259-.767-1.057-.921-4.607-5.574-20.694-31.96-2.191-2.557,2.241-1.074,1.611-1.074,1.763-1.611,1.183-1.559,0.931-1.739,0.5-1.534,0.327-1.739,0.076-2.582-0.177-1.892-0.654-2.045-0.4-.947-0.579-.792-0.957-1.049-1.636-1.074-3.8-1.558-2.794-.563Zm16.188,3.451,3.248,0.409,1.409,0.486,1.234,0.665,1.083,0.792,0.453,0.486,1.032,1.79,0.227,0.69,0.377,3.376-0.1,1.789-0.327,1.56-0.5,1.355-1.058,1.739-0.982.92-1.762.243-3.5,1.124-2.568.256a1.731,1.731,0,0,1-.73-0.2V901.834a0.987,0.987,0,0,1,.654-0.306ZM921.1,943.843l0.777-16.217-2.934-.234q-1.727,7.362-5.453,10.387t-11.235,3.026q-2.964,0-3.726-.63a3.344,3.344,0,0,1-.763-2.614V923.126H898.6q3.826,0,5.711,1.855t2.661,6.414h2.935V911.584h-2.935q-0.777,4.617-2.661,6.472t-5.711,1.855h-0.835v-13a3.478,3.478,0,0,1,.705-2.6q0.7-.612,3.611-0.613,6.876,0,10.315,2.805t4.992,9.7h2.906L919.8,900.626H881.393v3.127h2.935a3.528,3.528,0,0,1,2.4.6,3.7,3.7,0,0,1,.619,2.557v30.653a2.439,2.439,0,0,1-3.021,3.1h-2.935v3.185h39.7Zm42.721-14.129c-1.093,4.187-3.083,5.763-5.385,7.964a11.7,11.7,0,0,1-8.4,3.3c-8.516,0-11.912-5.359-11.912-19.111,0-13.441,3.367-19.139,11.078-19.139a11,11,0,0,1,8.387,3.754q3.466,3.756,5.366,11.09l2.992-.234-0.835-17.416h-2.474l-3.28,3.1a16.72,16.72,0,0,0-5.049-2.513,20.459,20.459,0,0,0-5.913-.818,23.658,23.658,0,0,0-9.279,1.709,19.526,19.526,0,0,0-7.121,5.216,22.465,22.465,0,0,0-4.215,7.159,26.354,26.354,0,0,0,.748,19.023,21.283,21.283,0,0,0,6.373,8.007,19.5,19.5,0,0,0,6.013,3.126,38.3,38.3,0,0,0,9.107,1.052c5.044,0,7.164-1.353,10.358-4.062s3.225-4.422,4.261-9.545Zm31.93,14.129h22.471v-3.185h-3.02a3.5,3.5,0,0,1-2.35-.57,3.717,3.717,0,0,1-.59-2.527V906.908a3.775,3.775,0,0,1,.61-2.557,3.354,3.354,0,0,1,2.33-.6h3.02v-3.127H995.749v3.127h2.963a3.346,3.346,0,0,1,2.328.6,3.719,3.719,0,0,1,.61,2.557v12.711H986.024V906.908a3.639,3.639,0,0,1,.633-2.542,3.471,3.471,0,0,1,2.388-.613h2.934v-3.127H969.537v3.127h2.993a3.414,3.414,0,0,1,2.359.6,3.764,3.764,0,0,1,.6,2.557v30.653a3.7,3.7,0,0,1-.59,2.527,3.53,3.53,0,0,1-2.373.57h-2.993v3.185h22.442v-3.185h-2.934a2.438,2.438,0,0,1-3.021-3.1V923.505h15.626v14.056a3.717,3.717,0,0,1-.59,2.527,3.5,3.5,0,0,1-2.348.57h-2.963v3.185Zm26.591-43.217v3.127h3.25a3.468,3.468,0,0,1,2.39.6,3.784,3.784,0,0,1,.6,2.557v30.653a3.658,3.658,0,0,1-.6,2.513,3.527,3.527,0,0,1-2.39.584h-3.25v3.185h23.16v-3.185h-3.37a3.453,3.453,0,0,1-2.34-.57,3.717,3.717,0,0,1-.59-2.527V906.908a3.784,3.784,0,0,1,.6-2.557,3.371,3.371,0,0,1,2.33-.6h3.37v-3.127h-23.16Zm38.51,7.056a8.909,8.909,0,0,1,15.77-.029q2.58,4.749,2.58,14.6,0,9.73-2.61,14.523a8.892,8.892,0,0,1-15.75.058q-2.565-4.733-2.56-14.581Q1058.28,912.462,1060.85,907.682Zm-12.91,23.3a20.3,20.3,0,0,0,4.53,6.984,21.25,21.25,0,0,0,7.29,5.216c2.66,1.12,7.64,1.68,10.96,1.68,3.26,0,4.28-.589,7.05-1.768a22.051,22.051,0,0,0,7.44-5.245,20.307,20.307,0,0,0,4.4-6.91,24.988,24.988,0,0,0,1.38-8.694,25.385,25.385,0,0,0-1.51-8.883,20.972,20.972,0,0,0-4.39-7.159,20.127,20.127,0,0,0-7.16-5.041,26.577,26.577,0,0,0-18.28,0,20.057,20.057,0,0,0-7.13,4.924,21.023,21.023,0,0,0-4.48,7.232,25.369,25.369,0,0,0-1.53,8.927A24.626,24.626,0,0,0,1047.94,930.986Zm84.86-3.477-2.97-.293q-1.725,7.337-5.34,10.33c-2.4,2-5.99,3-10.74,3-2.04,0-3.29-.205-3.77-0.614a3.329,3.329,0,0,1-.72-2.542V906.908a3.652,3.652,0,0,1,.63-2.542,3.475,3.475,0,0,1,2.39-.613h3.71v-3.127h-23.33v3.127h3.05a3.492,3.492,0,0,1,2.36.583,3.78,3.78,0,0,1,.6,2.572v30.653a3.537,3.537,0,0,1-.62,2.513,3.577,3.577,0,0,1-2.4.584h-2.99v3.185h39.36Zm17.15-3.325a11.543,11.543,0,0,0,8.52-3.586,12.331,12.331,0,0,0,0-17.274,11.9,11.9,0,0,0-17.03,0,12.306,12.306,0,0,0,0,17.274,11.653,11.653,0,0,0,8.51,3.614v-0.028Zm0-1.335a10.231,10.231,0,0,1-7.55-3.2,10.948,10.948,0,0,1,0-15.369,10.539,10.539,0,0,1,15.12,0,10.948,10.948,0,0,1,0,15.369,10.243,10.243,0,0,1-7.57,3.2h0Zm3.7-4.46h3.55v-0.668a1.925,1.925,0,0,1-.9-0.192,1.765,1.765,0,0,1-.64-0.646l-2.67-4.6a5.27,5.27,0,0,0,1.77-1.221,2.843,2.843,0,0,0,.66-1.989,2.776,2.776,0,0,0-1.21-2.578,6.23,6.23,0,0,0-2.69-.888c-0.2-.019-0.41-0.036-0.62-0.05s-0.42-.021-0.62-0.021h-6.55v0.682h0.63a1.054,1.054,0,0,1,.94.334,1.91,1.91,0,0,1,.21,1v8.835a1.206,1.206,0,0,1-.4,1.122,2.849,2.849,0,0,1-1.27.213v0.668h6.37v-0.668h-0.59a1.054,1.054,0,0,1-.95-0.334,2.022,2.022,0,0,1-.2-1V912.28h1.74l3.44,6.109h0Zm-5.18-6.748v-5.184a10.833,10.833,0,0,1,2.72.319c0.83,0.213,1.24.977,1.24,2.294a2.547,2.547,0,0,1-.66,1.989,2.84,2.84,0,0,1-1.94.582h-1.36Z" transform="translate(-837 -898)"/>
</svg>
